<?xml version="1.0" standalone="no"?><!DOCTYPE svg PUBLIC "-//W3C//DTD SVG 1.1//EN" "http://www.w3.org/Graphics/SVG/1.1/DTD/svg11.dtd"><svg t="1720264936926" class="icon" viewBox="0 0 1025 1024" version="1.1" xmlns="http://www.w3.org/2000/svg" p-id="4020" id="mx_n_1720264936928" xmlns:xlink="http://www.w3.org/1999/xlink" width="256.25" height="256"><path d="M713 888H40a40 40 0 0 1-40-40V386a40 40 0 0 1 40-40h673a40 40 0 0 1 40 40v462a40 40 0 0 1-40 40zM80 808h593V426H80z" fill="#38e3a9" p-id="4021"></path><path d="M544 786H209a99 99 0 0 1 0-198h335a99 99 0 0 1 0 198zM209 668a19 19 0 0 0 0 38h335a19 19 0 0 0 0-38zM984 851l-11-2-271-80a40 40 0 0 1-29-38V503a40 40 0 0 1 29-38l271-80a40 40 0 0 1 51 38v388a40 40 0 0 1-40 40zM753 701l191 56V477l-191 56zM164 346c-79 0-143-64-143-143S85 60 164 60s143 64 143 143-64 143-143 143z m0-206a63 63 0 1 0 63 63 63 63 0 0 0-63-63zM488 346c-95 0-173-78-173-173S393 0 488 0s173 78 173 173-78 173-173 173z m0-266a93 93 0 1 0 93 93 93 93 0 0 0-93-93zM164 1023a40 40 0 0 1-36-57l56-123a40.056 40.056 0 1 1 73 33l-56 123a40 40 0 0 1-37 24zM580 1023a40 40 0 0 1-36-23l-56-123a40.056 40.056 0 1 1 73-33l56 123a40 40 0 0 1-36 57zM597 538h-47a40 40 0 0 1 0-80h47a40 40 0 0 1 0 80z" fill="#38e3a9" p-id="4022"></path></svg>